<svg width="122" height="21" viewBox="0 0 122 21" fill="none" xmlns="http://www.w3.org/2000/svg">
<path d="M17.0312 18.7812C15.0521 19.8021 12.9896 20.3125 10.8438 20.3125C7.82292 20.3125 5.38542 19.3438 3.53125 17.4062C1.80208 15.5729 0.9375 13.3125 0.9375 10.625C0.9375 8.35417 1.59375 6.34375 2.90625 4.59375C4.76042 2.15625 7.4375 0.9375 10.9375 0.9375C13.125 0.9375 15.125 1.42708 16.9375 2.40625C16.9167 2.07292 16.9271 1.80208 16.9688 1.59375C17.0729 1.26042 17.3958 1.09375 17.9375 1.09375L18.0312 7.25H16.9375C16.6042 6.04167 16.2188 5.05208 15.7812 4.28125C14.8438 2.67708 13.3958 1.875 11.4375 1.875C7.72917 1.89583 5.86458 4.76042 5.84375 10.4688C5.84375 12.2188 5.96875 13.6875 6.21875 14.875C6.88542 17.875 8.54167 19.375 11.1875 19.375C11.8542 19.375 12.4583 19.3021 13 19.1562C14.9583 18.6146 16.3229 16.8958 17.0938 14H18.125V20.1562C17.8958 20.1562 17.7083 20.1354 17.5625 20.0938C17.1875 20.0104 17.0104 19.5729 17.0312 18.7812ZM38.9688 20H30.5938V19.1562H32.8125L30.4688 13.1562H24.25L22 19.1562H23.75C23.875 19.1562 23.9896 19.1667 24.0938 19.1875C24.3646 19.2292 24.5 19.5 24.5 20H18.75V19.1562H20.75L27.5938 1.25H29.9062L37.2812 19.1562H38.2188C38.3438 19.1562 38.4583 19.1667 38.5625 19.1875C38.8333 19.2292 38.9688 19.5 38.9688 20ZM30.0938 12.2188L27.3125 5.03125L24.625 12.2188H30.0938ZM48.9688 20H39.5938V19.1562H42.0938V2.09375H39.5938V1.25H50.0312C51.6979 1.25 53.1146 1.64583 54.2812 2.4375C55.6562 3.375 56.3438 4.61458 56.3438 6.15625C56.3438 6.61458 56.2812 7.0625 56.1562 7.5C55.6562 9.27083 54.3125 10.4583 52.125 11.0625L56.9375 19.1875H57.3438C57.4479 19.1875 57.5521 19.1979 57.6562 19.2188C57.9896 19.2812 58.1562 19.5417 58.1562 20L52.6562 20.0312L48 11.4375H46.4688V19.1562H48.9688V20ZM48.1562 2.09375H46.4688V10.5H48.4062C49.0312 10.5 49.5833 10.3438 50.0625 10.0312C51.1458 9.34375 51.6875 8.10417 51.6875 6.3125C51.6875 5.72917 51.6146 5.16667 51.4688 4.625C50.9688 2.9375 49.8646 2.09375 48.1562 2.09375ZM72 20H61.6875V19.1562H64.6562V2.09375H64.125C63.4167 2.09375 62.8125 2.22917 62.3125 2.5C61.5833 2.91667 60.9896 3.79167 60.5312 5.125L59.5625 7.9375H58.625L58.75 1.25H74.9375L75.0625 7.9375H74.125L73.1562 5.125C73.0104 4.72917 72.875 4.38542 72.75 4.09375C72.125 2.76042 71.0625 2.09375 69.5625 2.09375H69.0312V19.1562H71.1562C71.5938 19.1979 71.875 19.4792 72 20ZM80.7188 17.9688C80.7188 18.3438 80.6354 18.6979 80.4688 19.0312C80.0521 19.7812 79.3958 20.1562 78.5 20.1562C78.1458 20.1562 77.8125 20.0729 77.5 19.9062C76.7083 19.5104 76.3125 18.8646 76.3125 17.9688C76.3125 17.6146 76.3958 17.2708 76.5625 16.9375C76.9792 16.1458 77.625 15.75 78.5 15.75C78.8542 15.75 79.1979 15.8333 79.5312 16C80.3229 16.4375 80.7188 17.0938 80.7188 17.9688ZM98.5312 18.7812C96.5521 19.8021 94.4896 20.3125 92.3438 20.3125C89.3229 20.3125 86.8854 19.3438 85.0312 17.4062C83.3021 15.5729 82.4375 13.3125 82.4375 10.625C82.4375 8.35417 83.0938 6.34375 84.4062 4.59375C86.2604 2.15625 88.9375 0.9375 92.4375 0.9375C94.625 0.9375 96.625 1.42708 98.4375 2.40625C98.4167 2.07292 98.4271 1.80208 98.4688 1.59375C98.5729 1.26042 98.8958 1.09375 99.4375 1.09375L99.5312 7.25H98.4375C98.1042 6.04167 97.7188 5.05208 97.2812 4.28125C96.3438 2.67708 94.8958 1.875 92.9375 1.875C89.2292 1.89583 87.3646 4.76042 87.3438 10.4688C87.3438 12.2188 87.4688 13.6875 87.7188 14.875C88.3854 17.875 90.0417 19.375 92.6875 19.375C93.3542 19.375 93.9583 19.3021 94.5 19.1562C96.4583 18.6146 97.8229 16.8958 98.5938 14H99.625V20.1562C99.3958 20.1562 99.2083 20.1354 99.0625 20.0938C98.6875 20.0104 98.5104 19.5729 98.5312 18.7812ZM111.344 0.9375C113.698 0.9375 115.75 1.57292 117.5 2.84375C119.938 4.63542 121.156 7.25 121.156 10.6875C121.156 13.5208 120.188 15.8542 118.25 17.6875C116.354 19.4375 114.021 20.3125 111.25 20.3125C108.812 20.3125 106.688 19.6146 104.875 18.2188C102.521 16.3854 101.344 13.8333 101.344 10.5625C101.344 7.70833 102.333 5.375 104.312 3.5625C106.229 1.8125 108.573 0.9375 111.344 0.9375ZM111.344 19.4062C112.302 19.4062 113.104 19.1979 113.75 18.7812C115.417 17.7188 116.25 14.9688 116.25 10.5312C116.25 8.65625 116.094 7.08333 115.781 5.8125C115.115 3.16667 113.604 1.84375 111.25 1.84375C110.542 1.84375 109.906 1.96875 109.344 2.21875C107.281 3.09375 106.25 5.91667 106.25 10.6875C106.25 13.1875 106.51 15.125 107.031 16.5C107.781 18.4375 109.219 19.4062 111.344 19.4062Z" fill="black"/>
</svg>
